<mxfile host="app.diagrams.net" agent="Mozilla/5.0 (Windows NT 10.0; Win64; x64) AppleWebKit/537.36 (KHTML, like Gecko) Chrome/134.0.0.0 Safari/537.36" version="26.1.0">
  <diagram id="kgpKYQtTHZ0yAKxKKP6v" name="Page-1">
    <mxGraphModel dx="920" dy="558" grid="1" gridSize="10" guides="1" tooltips="1" connect="1" arrows="1" fold="1" page="1" pageScale="1" pageWidth="850" pageHeight="1100" math="0" shadow="0">
      <root>
        <mxCell id="0" />
        <mxCell id="1" parent="0" />
        <mxCell id="g1UFgbMDgLvSiYdy4ocw-1" value="simulate_turbie" style="rounded=1;whiteSpace=wrap;html=1;" vertex="1" parent="1">
          <mxGeometry x="351.25" y="600" width="120" height="60" as="geometry" />
        </mxCell>
        <mxCell id="g1UFgbMDgLvSiYdy4ocw-2" value="get_turbie_system_matricies" style="rounded=1;whiteSpace=wrap;html=1;" vertex="1" parent="1">
          <mxGeometry x="328.75" y="290" width="165" height="60" as="geometry" />
        </mxCell>
        <mxCell id="g1UFgbMDgLvSiYdy4ocw-3" value="load_wind&amp;nbsp;" style="rounded=1;whiteSpace=wrap;html=1;" vertex="1" parent="1">
          <mxGeometry x="347.5" y="100" width="120" height="60" as="geometry" />
        </mxCell>
        <mxCell id="g1UFgbMDgLvSiYdy4ocw-4" value="load_turbie_parameters" style="rounded=1;whiteSpace=wrap;html=1;" vertex="1" parent="1">
          <mxGeometry x="333.75" y="190" width="155" height="60" as="geometry" />
        </mxCell>
        <mxCell id="g1UFgbMDgLvSiYdy4ocw-5" value="calculate_ct" style="rounded=1;whiteSpace=wrap;html=1;" vertex="1" parent="1">
          <mxGeometry x="351.25" y="390" width="120" height="60" as="geometry" />
        </mxCell>
        <mxCell id="g1UFgbMDgLvSiYdy4ocw-6" value="calculate_dydt" style="rounded=1;whiteSpace=wrap;html=1;" vertex="1" parent="1">
          <mxGeometry x="350" y="490" width="120" height="60" as="geometry" />
        </mxCell>
        <mxCell id="g1UFgbMDgLvSiYdy4ocw-7" value="" style="endArrow=classic;html=1;rounded=0;" edge="1" parent="1">
          <mxGeometry width="50" height="50" relative="1" as="geometry">
            <mxPoint x="248.75" y="319.5" as="sourcePoint" />
            <mxPoint x="328.75" y="319.5" as="targetPoint" />
          </mxGeometry>
        </mxCell>
        <mxCell id="g1UFgbMDgLvSiYdy4ocw-8" value="" style="endArrow=classic;html=1;rounded=0;" edge="1" parent="1">
          <mxGeometry width="50" height="50" relative="1" as="geometry">
            <mxPoint x="493.75" y="319.5" as="sourcePoint" />
            <mxPoint x="573.75" y="319.5" as="targetPoint" />
          </mxGeometry>
        </mxCell>
        <mxCell id="g1UFgbMDgLvSiYdy4ocw-10" value="" style="endArrow=classic;html=1;rounded=0;" edge="1" parent="1">
          <mxGeometry width="50" height="50" relative="1" as="geometry">
            <mxPoint x="253.75" y="219.5" as="sourcePoint" />
            <mxPoint x="333.75" y="219.5" as="targetPoint" />
          </mxGeometry>
        </mxCell>
        <mxCell id="g1UFgbMDgLvSiYdy4ocw-11" value="" style="endArrow=classic;html=1;rounded=0;" edge="1" parent="1">
          <mxGeometry width="50" height="50" relative="1" as="geometry">
            <mxPoint x="488.75" y="219.5" as="sourcePoint" />
            <mxPoint x="568.75" y="219.5" as="targetPoint" />
          </mxGeometry>
        </mxCell>
        <mxCell id="g1UFgbMDgLvSiYdy4ocw-12" value="" style="endArrow=classic;html=1;rounded=0;" edge="1" parent="1">
          <mxGeometry width="50" height="50" relative="1" as="geometry">
            <mxPoint x="265" y="129.5" as="sourcePoint" />
            <mxPoint x="345" y="129.5" as="targetPoint" />
          </mxGeometry>
        </mxCell>
        <mxCell id="g1UFgbMDgLvSiYdy4ocw-13" value="" style="endArrow=classic;html=1;rounded=0;" edge="1" parent="1">
          <mxGeometry width="50" height="50" relative="1" as="geometry">
            <mxPoint x="467.5" y="129.5" as="sourcePoint" />
            <mxPoint x="547.5" y="129.5" as="targetPoint" />
          </mxGeometry>
        </mxCell>
        <mxCell id="g1UFgbMDgLvSiYdy4ocw-14" value="" style="endArrow=classic;html=1;rounded=0;" edge="1" parent="1">
          <mxGeometry width="50" height="50" relative="1" as="geometry">
            <mxPoint x="271.25" y="419.5" as="sourcePoint" />
            <mxPoint x="351.25" y="419.5" as="targetPoint" />
          </mxGeometry>
        </mxCell>
        <mxCell id="g1UFgbMDgLvSiYdy4ocw-15" value="" style="endArrow=classic;html=1;rounded=0;" edge="1" parent="1">
          <mxGeometry width="50" height="50" relative="1" as="geometry">
            <mxPoint x="471.25" y="419.5" as="sourcePoint" />
            <mxPoint x="551.25" y="419.5" as="targetPoint" />
          </mxGeometry>
        </mxCell>
        <mxCell id="g1UFgbMDgLvSiYdy4ocw-16" value="" style="endArrow=classic;html=1;rounded=0;" edge="1" parent="1">
          <mxGeometry width="50" height="50" relative="1" as="geometry">
            <mxPoint x="270" y="519.5" as="sourcePoint" />
            <mxPoint x="350" y="519.5" as="targetPoint" />
          </mxGeometry>
        </mxCell>
        <mxCell id="g1UFgbMDgLvSiYdy4ocw-17" value="" style="endArrow=classic;html=1;rounded=0;" edge="1" parent="1">
          <mxGeometry width="50" height="50" relative="1" as="geometry">
            <mxPoint x="470" y="519.5" as="sourcePoint" />
            <mxPoint x="550" y="519.5" as="targetPoint" />
          </mxGeometry>
        </mxCell>
        <mxCell id="g1UFgbMDgLvSiYdy4ocw-18" value="" style="endArrow=classic;html=1;rounded=0;" edge="1" parent="1">
          <mxGeometry width="50" height="50" relative="1" as="geometry">
            <mxPoint x="268.75" y="629.5" as="sourcePoint" />
            <mxPoint x="348.75" y="629.5" as="targetPoint" />
          </mxGeometry>
        </mxCell>
        <mxCell id="g1UFgbMDgLvSiYdy4ocw-19" value="" style="endArrow=classic;html=1;rounded=0;" edge="1" parent="1">
          <mxGeometry width="50" height="50" relative="1" as="geometry">
            <mxPoint x="471.25" y="629.5" as="sourcePoint" />
            <mxPoint x="551.25" y="629.5" as="targetPoint" />
          </mxGeometry>
        </mxCell>
        <mxCell id="g1UFgbMDgLvSiYdy4ocw-20" value="path_wind: str/path" style="text;html=1;align=center;verticalAlign=middle;resizable=0;points=[];autosize=1;strokeColor=none;fillColor=none;" vertex="1" parent="1">
          <mxGeometry x="140" y="115" width="120" height="30" as="geometry" />
        </mxCell>
        <mxCell id="g1UFgbMDgLvSiYdy4ocw-21" value="path_parameters: str/path&amp;nbsp;" style="text;html=1;align=center;verticalAlign=middle;resizable=0;points=[];autosize=1;strokeColor=none;fillColor=none;" vertex="1" parent="1">
          <mxGeometry x="100" y="205" width="160" height="30" as="geometry" />
        </mxCell>
        <mxCell id="g1UFgbMDgLvSiYdy4ocw-22" value="t_wind: np.ndarray&lt;div&gt;u_wind: np.ndarray&amp;nbsp;&lt;/div&gt;" style="text;html=1;align=center;verticalAlign=middle;resizable=0;points=[];autosize=1;strokeColor=none;fillColor=none;" vertex="1" parent="1">
          <mxGeometry x="550" y="110" width="130" height="40" as="geometry" />
        </mxCell>
        <mxCell id="g1UFgbMDgLvSiYdy4ocw-23" value="turbie_dict: dict" style="text;html=1;align=center;verticalAlign=middle;resizable=0;points=[];autosize=1;strokeColor=none;fillColor=none;" vertex="1" parent="1">
          <mxGeometry x="565" y="205" width="100" height="30" as="geometry" />
        </mxCell>
        <mxCell id="g1UFgbMDgLvSiYdy4ocw-24" value="path_parameters: str/path" style="text;html=1;align=center;verticalAlign=middle;resizable=0;points=[];autosize=1;strokeColor=none;fillColor=none;" vertex="1" parent="1">
          <mxGeometry x="90" y="305" width="160" height="30" as="geometry" />
        </mxCell>
        <mxCell id="g1UFgbMDgLvSiYdy4ocw-25" value="M: np.ndarray&lt;div&gt;C: np.ndarray&amp;nbsp;&lt;/div&gt;&lt;div&gt;K: np.ndarray&amp;nbsp;&lt;/div&gt;" style="text;html=1;align=center;verticalAlign=middle;resizable=0;points=[];autosize=1;strokeColor=none;fillColor=none;" vertex="1" parent="1">
          <mxGeometry x="565" y="290" width="100" height="60" as="geometry" />
        </mxCell>
        <mxCell id="g1UFgbMDgLvSiYdy4ocw-27" value="u_wind: str/path&lt;div&gt;path_ct: str/path&amp;nbsp;&lt;/div&gt;" style="text;html=1;align=center;verticalAlign=middle;resizable=0;points=[];autosize=1;strokeColor=none;fillColor=none;" vertex="1" parent="1">
          <mxGeometry x="160" y="400" width="110" height="40" as="geometry" />
        </mxCell>
        <mxCell id="g1UFgbMDgLvSiYdy4ocw-28" value="ct: float&amp;nbsp;" style="text;html=1;align=center;verticalAlign=middle;resizable=0;points=[];autosize=1;strokeColor=none;fillColor=none;" vertex="1" parent="1">
          <mxGeometry x="550" y="405" width="70" height="30" as="geometry" />
        </mxCell>
        <mxCell id="g1UFgbMDgLvSiYdy4ocw-29" value="t: int&amp;nbsp;&lt;div&gt;y: list&amp;nbsp;&lt;/div&gt;&lt;div&gt;M: np.ndarray&lt;/div&gt;&lt;div&gt;C: np.ndarray&amp;nbsp;&lt;/div&gt;&lt;div&gt;K: np.ndarray&amp;nbsp;&lt;/div&gt;" style="text;html=1;align=center;verticalAlign=middle;resizable=0;points=[];autosize=1;strokeColor=none;fillColor=none;" vertex="1" parent="1">
          <mxGeometry x="165" y="475" width="100" height="90" as="geometry" />
        </mxCell>
        <mxCell id="g1UFgbMDgLvSiYdy4ocw-30" value="1D np.ndarray" style="text;html=1;align=center;verticalAlign=middle;resizable=0;points=[];autosize=1;strokeColor=none;fillColor=none;" vertex="1" parent="1">
          <mxGeometry x="550" y="505" width="100" height="30" as="geometry" />
        </mxCell>
        <mxCell id="g1UFgbMDgLvSiYdy4ocw-33" value="t: np.ndarray&amp;nbsp;&lt;div&gt;u: np.ndarray&amp;nbsp;&lt;/div&gt;&lt;div&gt;xb: np.ndarray&amp;nbsp;&lt;/div&gt;&lt;div&gt;xt: np.ndarray&lt;/div&gt;" style="text;html=1;align=center;verticalAlign=middle;resizable=0;points=[];autosize=1;strokeColor=none;fillColor=none;" vertex="1" parent="1">
          <mxGeometry x="550" y="595" width="100" height="70" as="geometry" />
        </mxCell>
        <mxCell id="g1UFgbMDgLvSiYdy4ocw-34" value="calculate_mean_stdv" style="rounded=1;whiteSpace=wrap;html=1;" vertex="1" parent="1">
          <mxGeometry x="346.25" y="720" width="120" height="60" as="geometry" />
        </mxCell>
        <mxCell id="g1UFgbMDgLvSiYdy4ocw-35" value="" style="endArrow=classic;html=1;rounded=0;" edge="1" parent="1">
          <mxGeometry width="50" height="50" relative="1" as="geometry">
            <mxPoint x="263.75" y="749.5" as="sourcePoint" />
            <mxPoint x="343.75" y="749.5" as="targetPoint" />
          </mxGeometry>
        </mxCell>
        <mxCell id="g1UFgbMDgLvSiYdy4ocw-36" value="" style="endArrow=classic;html=1;rounded=0;" edge="1" parent="1">
          <mxGeometry width="50" height="50" relative="1" as="geometry">
            <mxPoint x="466.25" y="749.5" as="sourcePoint" />
            <mxPoint x="546.25" y="749.5" as="targetPoint" />
          </mxGeometry>
        </mxCell>
        <mxCell id="g1UFgbMDgLvSiYdy4ocw-37" value="xb: np.ndarray&lt;div&gt;xt: np.ndarray&lt;/div&gt;&lt;div&gt;u_wind: np.ndarray&lt;/div&gt;" style="text;html=1;align=center;verticalAlign=middle;resizable=0;points=[];autosize=1;strokeColor=none;fillColor=none;" vertex="1" parent="1">
          <mxGeometry x="140" y="720" width="130" height="60" as="geometry" />
        </mxCell>
        <mxCell id="g1UFgbMDgLvSiYdy4ocw-39" value="calculate_for_TI" style="rounded=1;whiteSpace=wrap;html=1;" vertex="1" parent="1">
          <mxGeometry x="351.25" y="850" width="120" height="60" as="geometry" />
        </mxCell>
        <mxCell id="g1UFgbMDgLvSiYdy4ocw-40" value="" style="endArrow=classic;html=1;rounded=0;" edge="1" parent="1">
          <mxGeometry width="50" height="50" relative="1" as="geometry">
            <mxPoint x="268.75" y="879.5" as="sourcePoint" />
            <mxPoint x="348.75" y="879.5" as="targetPoint" />
          </mxGeometry>
        </mxCell>
        <mxCell id="g1UFgbMDgLvSiYdy4ocw-41" value="" style="endArrow=classic;html=1;rounded=0;" edge="1" parent="1">
          <mxGeometry width="50" height="50" relative="1" as="geometry">
            <mxPoint x="471.25" y="879.5" as="sourcePoint" />
            <mxPoint x="551.25" y="879.5" as="targetPoint" />
          </mxGeometry>
        </mxCell>
        <mxCell id="g1UFgbMDgLvSiYdy4ocw-42" value="path_wind_files: str/path&amp;nbsp;&lt;div&gt;path_ct: str/path&lt;/div&gt;&lt;div&gt;turbie_params: str/path&lt;/div&gt;" style="text;html=1;align=center;verticalAlign=middle;resizable=0;points=[];autosize=1;strokeColor=none;fillColor=none;" vertex="1" parent="1">
          <mxGeometry x="110" y="850" width="160" height="60" as="geometry" />
        </mxCell>
        <mxCell id="g1UFgbMDgLvSiYdy4ocw-43" value="blade_data: list&lt;div&gt;tower_data: list&lt;/div&gt;" style="text;html=1;align=center;verticalAlign=middle;resizable=0;points=[];autosize=1;strokeColor=none;fillColor=none;" vertex="1" parent="1">
          <mxGeometry x="550" y="860" width="100" height="40" as="geometry" />
        </mxCell>
        <mxCell id="g1UFgbMDgLvSiYdy4ocw-44" value="mean_blade: np.ndarray&lt;div&gt;std_balde: np.ndarray&lt;/div&gt;&lt;div&gt;mean_tower: np.ndarray&lt;/div&gt;&lt;div&gt;std_tower: np.ndarray&amp;nbsp;&lt;/div&gt;&lt;div&gt;mean_wind: np.ndarray&amp;nbsp;&lt;/div&gt;" style="text;html=1;align=center;verticalAlign=middle;resizable=0;points=[];autosize=1;strokeColor=none;fillColor=none;" vertex="1" parent="1">
          <mxGeometry x="540" y="705" width="150" height="90" as="geometry" />
        </mxCell>
        <mxCell id="g1UFgbMDgLvSiYdy4ocw-45" value="plot_mean_stdv" style="rounded=1;whiteSpace=wrap;html=1;" vertex="1" parent="1">
          <mxGeometry x="351.25" y="960" width="120" height="60" as="geometry" />
        </mxCell>
        <mxCell id="g1UFgbMDgLvSiYdy4ocw-46" value="" style="endArrow=classic;html=1;rounded=0;" edge="1" parent="1">
          <mxGeometry width="50" height="50" relative="1" as="geometry">
            <mxPoint x="268.75" y="989.5" as="sourcePoint" />
            <mxPoint x="348.75" y="989.5" as="targetPoint" />
          </mxGeometry>
        </mxCell>
        <mxCell id="g1UFgbMDgLvSiYdy4ocw-47" value="" style="endArrow=classic;html=1;rounded=0;" edge="1" parent="1">
          <mxGeometry width="50" height="50" relative="1" as="geometry">
            <mxPoint x="471.25" y="989.5" as="sourcePoint" />
            <mxPoint x="551.25" y="989.5" as="targetPoint" />
          </mxGeometry>
        </mxCell>
        <mxCell id="g1UFgbMDgLvSiYdy4ocw-48" value="blade_array: np.ndarray&amp;nbsp;&lt;div&gt;tower_array: np.ndarray&lt;br&gt;&lt;div&gt;TI_title: str&amp;nbsp;&lt;/div&gt;&lt;/div&gt;" style="text;html=1;align=center;verticalAlign=middle;resizable=0;points=[];autosize=1;strokeColor=none;fillColor=none;" vertex="1" parent="1">
          <mxGeometry x="115" y="960" width="150" height="60" as="geometry" />
        </mxCell>
        <mxCell id="g1UFgbMDgLvSiYdy4ocw-49" value="fig, axs: tuple&amp;nbsp;" style="text;html=1;align=center;verticalAlign=middle;resizable=0;points=[];autosize=1;strokeColor=none;fillColor=none;" vertex="1" parent="1">
          <mxGeometry x="550" y="975" width="100" height="30" as="geometry" />
        </mxCell>
        <mxCell id="g1UFgbMDgLvSiYdy4ocw-50" value="&lt;b&gt;&lt;font style=&quot;font-size: 16px;&quot;&gt;Inputs and outputs of utilized functions&amp;nbsp;&lt;/font&gt;&lt;/b&gt;" style="text;html=1;align=center;verticalAlign=middle;resizable=0;points=[];autosize=1;strokeColor=none;fillColor=none;" vertex="1" parent="1">
          <mxGeometry x="230" y="30" width="330" height="30" as="geometry" />
        </mxCell>
        <mxCell id="g1UFgbMDgLvSiYdy4ocw-51" value="path_wind: str/path&lt;div&gt;path_parameters: str/path&amp;nbsp;&lt;/div&gt;&lt;div&gt;path_ct: str/path&amp;nbsp;&lt;/div&gt;" style="text;html=1;align=center;verticalAlign=middle;resizable=0;points=[];autosize=1;strokeColor=none;fillColor=none;" vertex="1" parent="1">
          <mxGeometry x="115" y="600" width="160" height="60" as="geometry" />
        </mxCell>
      </root>
    </mxGraphModel>
  </diagram>
</mxfile>
